<?xml version="1.0" standalone="no"?>
<!DOCTYPE svg PUBLIC "-//W3C//DTD SVG 1.1//EN" "http://www.w3.org/Graphics/SVG/1.1/DTD/svg11.dtd">
<svg version="1.1" width="1200" height="870" onload="init(evt)" viewBox="0 0 1200 870" xmlns="http://www.w3.org/2000/svg" xmlns:xlink="http://www.w3.org/1999/xlink">
<!-- Flame graph stack visualization. See https://github.com/brendangregg/FlameGraph for latest version, and http://www.brendangregg.com/flamegraphs.html for examples. -->
<!-- NOTES:  -->
<defs>
	<linearGradient id="background" y1="0" y2="1" x1="0" x2="0" >
		<stop stop-color="#eeeeee" offset="5%" />
		<stop stop-color="#eeeeb0" offset="95%" />
	</linearGradient>
</defs>
<style type="text/css">
	text { font-family:Verdana; font-size:12px; fill:rgb(0,0,0); }
	#search, #ignorecase { opacity:0.1; cursor:pointer; }
	#search:hover, #search.show, #ignorecase:hover, #ignorecase.show { opacity:1; }
	#subtitle { text-anchor:middle; font-color:rgb(160,160,160); }
	#title { text-anchor:middle; font-size:17px}
	#unzoom { cursor:pointer; }
	#frames > *:hover { stroke:black; stroke-width:0.5; cursor:pointer; }
	.hide { display:none; }
	.parent { opacity:0.5; }
</style>
<script type="text/ecmascript">
<![CDATA[
	"use strict";
	var details, searchbtn, unzoombtn, matchedtxt, svg, searching, currentSearchTerm, ignorecase, ignorecaseBtn;
	function init(evt) {
		details = document.getElementById("details").firstChild;
		searchbtn = document.getElementById("search");
		ignorecaseBtn = document.getElementById("ignorecase");
		unzoombtn = document.getElementById("unzoom");
		matchedtxt = document.getElementById("matched");
		svg = document.getElementsByTagName("svg")[0];
		searching = 0;
		currentSearchTerm = null;

		// use GET parameters to restore a flamegraphs state.
		var params = get_params();
		if (params.x && params.y)
			zoom(find_group(document.querySelector('[x="' + params.x + '"][y="' + params.y + '"]')));
                if (params.s) search(params.s);
	}

	// event listeners
	window.addEventListener("click", function(e) {
		var target = find_group(e.target);
		if (target) {
			if (target.nodeName == "a") {
				if (e.ctrlKey === false) return;
				e.preventDefault();
			}
			if (target.classList.contains("parent")) unzoom(true);
			zoom(target);
			if (!document.querySelector('.parent')) {
				// we have basically done a clearzoom so clear the url
				var params = get_params();
				if (params.x) delete params.x;
				if (params.y) delete params.y;
				history.replaceState(null, null, parse_params(params));
				unzoombtn.classList.add("hide");
				return;
			}

			// set parameters for zoom state
			var el = target.querySelector("rect");
			if (el && el.attributes && el.attributes.y && el.attributes._orig_x) {
				var params = get_params()
				params.x = el.attributes._orig_x.value;
				params.y = el.attributes.y.value;
				history.replaceState(null, null, parse_params(params));
			}
		}
		else if (e.target.id == "unzoom") clearzoom();
		else if (e.target.id == "search") search_prompt();
		else if (e.target.id == "ignorecase") toggle_ignorecase();
	}, false)

	// mouse-over for info
	// show
	window.addEventListener("mouseover", function(e) {
		var target = find_group(e.target);
		if (target) details.nodeValue = "Function: " + g_to_text(target);
	}, false)

	// clear
	window.addEventListener("mouseout", function(e) {
		var target = find_group(e.target);
		if (target) details.nodeValue = ' ';
	}, false)

	// ctrl-F for search
	// ctrl-I to toggle case-sensitive search
	window.addEventListener("keydown",function (e) {
		if (e.keyCode === 114 || (e.ctrlKey && e.keyCode === 70)) {
			e.preventDefault();
			search_prompt();
		}
		else if (e.ctrlKey && e.keyCode === 73) {
			e.preventDefault();
			toggle_ignorecase();
		}
	}, false)

	// functions
	function get_params() {
		var params = {};
		var paramsarr = window.location.search.substr(1).split('&');
		for (var i = 0; i < paramsarr.length; ++i) {
			var tmp = paramsarr[i].split("=");
			if (!tmp[0] || !tmp[1]) continue;
			params[tmp[0]]  = decodeURIComponent(tmp[1]);
		}
		return params;
	}
	function parse_params(params) {
		var uri = "?";
		for (var key in params) {
			uri += key + '=' + encodeURIComponent(params[key]) + '&';
		}
		if (uri.slice(-1) == "&")
			uri = uri.substring(0, uri.length - 1);
		if (uri == '?')
			uri = window.location.href.split('?')[0];
		return uri;
	}
	function find_child(node, selector) {
		var children = node.querySelectorAll(selector);
		if (children.length) return children[0];
	}
	function find_group(node) {
		var parent = node.parentElement;
		if (!parent) return;
		if (parent.id == "frames") return node;
		return find_group(parent);
	}
	function orig_save(e, attr, val) {
		if (e.attributes["_orig_" + attr] != undefined) return;
		if (e.attributes[attr] == undefined) return;
		if (val == undefined) val = e.attributes[attr].value;
		e.setAttribute("_orig_" + attr, val);
	}
	function orig_load(e, attr) {
		if (e.attributes["_orig_"+attr] == undefined) return;
		e.attributes[attr].value = e.attributes["_orig_" + attr].value;
		e.removeAttribute("_orig_"+attr);
	}
	function g_to_text(e) {
		var text = find_child(e, "title").firstChild.nodeValue;
		return (text)
	}
	function g_to_func(e) {
		var func = g_to_text(e);
		// if there's any manipulation we want to do to the function
		// name before it's searched, do it here before returning.
		return (func);
	}
	function update_text(e) {
		var r = find_child(e, "rect");
		var t = find_child(e, "text");
		var w = parseFloat(r.attributes.width.value) -3;
		var txt = find_child(e, "title").textContent.replace(/\([^(]*\)$/,"");
		t.attributes.x.value = parseFloat(r.attributes.x.value) + 3;

		// Smaller than this size won't fit anything
		if (w < 2 * 12 * 0.59) {
			t.textContent = "";
			return;
		}

		t.textContent = txt;
		var sl = t.getSubStringLength(0, txt.length);
		// check if only whitespace or if we can fit the entire string into width w
		if (/^ *$/.test(txt) || sl < w)
			return;

		// this isn't perfect, but gives a good starting point
		// and avoids calling getSubStringLength too often
		var start = Math.floor((w/sl) * txt.length);
		for (var x = start; x > 0; x = x-2) {
			if (t.getSubStringLength(0, x + 2) <= w) {
				t.textContent = txt.substring(0, x) + "..";
				return;
			}
		}
		t.textContent = "";
	}

	// zoom
	function zoom_reset(e) {
		if (e.attributes != undefined) {
			orig_load(e, "x");
			orig_load(e, "width");
		}
		if (e.childNodes == undefined) return;
		for (var i = 0, c = e.childNodes; i < c.length; i++) {
			zoom_reset(c[i]);
		}
	}
	function zoom_child(e, x, ratio) {
		if (e.attributes != undefined) {
			if (e.attributes.x != undefined) {
				orig_save(e, "x");
				e.attributes.x.value = (parseFloat(e.attributes.x.value) - x - 10) * ratio + 10;
				if (e.tagName == "text")
					e.attributes.x.value = find_child(e.parentNode, "rect[x]").attributes.x.value + 3;
			}
			if (e.attributes.width != undefined) {
				orig_save(e, "width");
				e.attributes.width.value = parseFloat(e.attributes.width.value) * ratio;
			}
		}

		if (e.childNodes == undefined) return;
		for (var i = 0, c = e.childNodes; i < c.length; i++) {
			zoom_child(c[i], x - 10, ratio);
		}
	}
	function zoom_parent(e) {
		if (e.attributes) {
			if (e.attributes.x != undefined) {
				orig_save(e, "x");
				e.attributes.x.value = 10;
			}
			if (e.attributes.width != undefined) {
				orig_save(e, "width");
				e.attributes.width.value = parseInt(svg.width.baseVal.value) - (10 * 2);
			}
		}
		if (e.childNodes == undefined) return;
		for (var i = 0, c = e.childNodes; i < c.length; i++) {
			zoom_parent(c[i]);
		}
	}
	function zoom(node) {
		var attr = find_child(node, "rect").attributes;
		var width = parseFloat(attr.width.value);
		var xmin = parseFloat(attr.x.value);
		var xmax = parseFloat(xmin + width);
		var ymin = parseFloat(attr.y.value);
		var ratio = (svg.width.baseVal.value - 2 * 10) / width;

		// XXX: Workaround for JavaScript float issues (fix me)
		var fudge = 0.0001;

		unzoombtn.classList.remove("hide");

		var el = document.getElementById("frames").children;
		for (var i = 0; i < el.length; i++) {
			var e = el[i];
			var a = find_child(e, "rect").attributes;
			var ex = parseFloat(a.x.value);
			var ew = parseFloat(a.width.value);
			var upstack;
			// Is it an ancestor
			if (0 == 0) {
				upstack = parseFloat(a.y.value) > ymin;
			} else {
				upstack = parseFloat(a.y.value) < ymin;
			}
			if (upstack) {
				// Direct ancestor
				if (ex <= xmin && (ex+ew+fudge) >= xmax) {
					e.classList.add("parent");
					zoom_parent(e);
					update_text(e);
				}
				// not in current path
				else
					e.classList.add("hide");
			}
			// Children maybe
			else {
				// no common path
				if (ex < xmin || ex + fudge >= xmax) {
					e.classList.add("hide");
				}
				else {
					zoom_child(e, xmin, ratio);
					update_text(e);
				}
			}
		}
		search();
	}
	function unzoom(dont_update_text) {
		unzoombtn.classList.add("hide");
		var el = document.getElementById("frames").children;
		for(var i = 0; i < el.length; i++) {
			el[i].classList.remove("parent");
			el[i].classList.remove("hide");
			zoom_reset(el[i]);
			if(!dont_update_text) update_text(el[i]);
		}
		search();
	}
	function clearzoom() {
		unzoom();

		// remove zoom state
		var params = get_params();
		if (params.x) delete params.x;
		if (params.y) delete params.y;
		history.replaceState(null, null, parse_params(params));
	}

	// search
	function toggle_ignorecase() {
		ignorecase = !ignorecase;
		if (ignorecase) {
			ignorecaseBtn.classList.add("show");
		} else {
			ignorecaseBtn.classList.remove("show");
		}
		reset_search();
		search();
	}
	function reset_search() {
		var el = document.querySelectorAll("#frames rect");
		for (var i = 0; i < el.length; i++) {
			orig_load(el[i], "fill")
		}
		var params = get_params();
		delete params.s;
		history.replaceState(null, null, parse_params(params));
	}
	function search_prompt() {
		if (!searching) {
			var term = prompt("Enter a search term (regexp " +
			    "allowed, eg: ^ext4_)"
			    + (ignorecase ? ", ignoring case" : "")
			    + "\nPress Ctrl-i to toggle case sensitivity", "");
			if (term != null) search(term);
		} else {
			reset_search();
			searching = 0;
			currentSearchTerm = null;
			searchbtn.classList.remove("show");
			searchbtn.firstChild.nodeValue = "Search"
			matchedtxt.classList.add("hide");
			matchedtxt.firstChild.nodeValue = ""
		}
	}
	function search(term) {
		if (term) currentSearchTerm = term;
		if (currentSearchTerm === null) return;

		var re = new RegExp(currentSearchTerm, ignorecase ? 'i' : '');
		var el = document.getElementById("frames").children;
		var matches = new Object();
		var maxwidth = 0;
		for (var i = 0; i < el.length; i++) {
			var e = el[i];
			var func = g_to_func(e);
			var rect = find_child(e, "rect");
			if (func == null || rect == null)
				continue;

			// Save max width. Only works as we have a root frame
			var w = parseFloat(rect.attributes.width.value);
			if (w > maxwidth)
				maxwidth = w;

			if (func.match(re)) {
				// highlight
				var x = parseFloat(rect.attributes.x.value);
				orig_save(rect, "fill");
				rect.attributes.fill.value = "rgb(230,0,230)";

				// remember matches
				if (matches[x] == undefined) {
					matches[x] = w;
				} else {
					if (w > matches[x]) {
						// overwrite with parent
						matches[x] = w;
					}
				}
				searching = 1;
			}
		}
		if (!searching)
			return;
		var params = get_params();
		params.s = currentSearchTerm;
		history.replaceState(null, null, parse_params(params));

		searchbtn.classList.add("show");
		searchbtn.firstChild.nodeValue = "Reset Search";

		// calculate percent matched, excluding vertical overlap
		var count = 0;
		var lastx = -1;
		var lastw = 0;
		var keys = Array();
		for (k in matches) {
			if (matches.hasOwnProperty(k))
				keys.push(k);
		}
		// sort the matched frames by their x location
		// ascending, then width descending
		keys.sort(function(a, b){
			return a - b;
		});
		// Step through frames saving only the biggest bottom-up frames
		// thanks to the sort order. This relies on the tree property
		// where children are always smaller than their parents.
		var fudge = 0.0001;	// JavaScript floating point
		for (var k in keys) {
			var x = parseFloat(keys[k]);
			var w = matches[keys[k]];
			if (x >= lastx + lastw - fudge) {
				count += w;
				lastx = x;
				lastw = w;
			}
		}
		// display matched percent
		matchedtxt.classList.remove("hide");
		var pct = 100 * count / maxwidth;
		if (pct != 100) pct = pct.toFixed(1)
		matchedtxt.firstChild.nodeValue = "Matched: " + pct + "%";
	}
]]>
</script>
<rect x="0.0" y="0" width="1200.0" height="870.0" fill="url(#background)"  />
<text id="title" x="600.00" y="24" >Flame Graph</text>
<text id="details" x="10.00" y="853" > </text>
<text id="unzoom" x="10.00" y="24" class="hide">Reset Zoom</text>
<text id="search" x="1090.00" y="24" >Search</text>
<text id="ignorecase" x="1174.00" y="24" >ic</text>
<text id="matched" x="1090.00" y="853" > </text>
<g id="frames">
<g >
<title>do_syscall_64 (323,232,320 samples, 22.54%)</title><rect x="882.5" y="757" width="266.0" height="15.0" fill="rgb(209,20,4)" rx="2" ry="2" />
<text  x="885.54" y="767.5" >do_syscall_64</text>
</g>
<g >
<title>__napi_poll (30,303,030 samples, 2.11%)</title><rect x="34.9" y="309" width="25.0" height="15.0" fill="rgb(247,195,46)" rx="2" ry="2" />
<text  x="37.93" y="319.5" >_..</text>
</g>
<g >
<title>__ip_finish_output (30,303,030 samples, 2.11%)</title><rect x="34.9" y="421" width="25.0" height="15.0" fill="rgb(215,47,11)" rx="2" ry="2" />
<text  x="37.93" y="431.5" >_..</text>
</g>
<g >
<title>finish_task_switch (111,111,110 samples, 7.75%)</title><rect x="134.6" y="613" width="91.5" height="15.0" fill="rgb(234,136,32)" rx="2" ry="2" />
<text  x="137.65" y="623.5" >finish_tas..</text>
</g>
<g >
<title>__wake_up_sync_key (10,101,010 samples, 0.70%)</title><rect x="68.2" y="581" width="8.3" height="15.0" fill="rgb(226,100,24)" rx="2" ry="2" />
<text  x="71.17" y="591.5" ></text>
</g>
<g >
<title>try_to_wake_up (323,232,320 samples, 22.54%)</title><rect x="882.5" y="661" width="266.0" height="15.0" fill="rgb(220,70,16)" rx="2" ry="2" />
<text  x="885.54" y="671.5" >try_to_wake_up</text>
</g>
<g >
<title>get_futex_key (10,101,010 samples, 0.70%)</title><rect x="226.1" y="645" width="8.3" height="15.0" fill="rgb(252,216,51)" rx="2" ry="2" />
<text  x="229.06" y="655.5" ></text>
</g>
<g >
<title>handle_softirqs (10,101,010 samples, 0.70%)</title><rect x="59.9" y="357" width="8.3" height="15.0" fill="rgb(238,156,37)" rx="2" ry="2" />
<text  x="62.86" y="367.5" ></text>
</g>
<g >
<title>tcp_data_queue (20,202,020 samples, 1.41%)</title><rect x="34.9" y="117" width="16.6" height="15.0" fill="rgb(228,109,26)" rx="2" ry="2" />
<text  x="37.93" y="127.5" ></text>
</g>
<g >
<title>x64_sys_call (70,707,070 samples, 4.93%)</title><rect x="18.3" y="725" width="58.2" height="15.0" fill="rgb(247,194,46)" rx="2" ry="2" />
<text  x="21.31" y="735.5" >x64_sy..</text>
</g>
<g >
<title>tcp_sendmsg (60,606,060 samples, 4.23%)</title><rect x="18.3" y="597" width="49.9" height="15.0" fill="rgb(223,83,19)" rx="2" ry="2" />
<text  x="21.31" y="607.5" >tcp_s..</text>
</g>
<g >
<title>murmur_hash3_x86_32 (20,202,020 samples, 1.41%)</title><rect x="766.2" y="757" width="16.6" height="15.0" fill="rgb(248,202,48)" rx="2" ry="2" />
<text  x="769.20" y="767.5" ></text>
</g>
<g >
<title>ip_protocol_deliver_rcu (10,101,010 samples, 0.70%)</title><rect x="59.9" y="197" width="8.3" height="15.0" fill="rgb(215,49,11)" rx="2" ry="2" />
<text  x="62.86" y="207.5" ></text>
</g>
<g >
<title>ip_local_deliver (10,101,010 samples, 0.70%)</title><rect x="59.9" y="229" width="8.3" height="15.0" fill="rgb(230,116,27)" rx="2" ry="2" />
<text  x="62.86" y="239.5" ></text>
</g>
<g >
<title>ksys_write (70,707,070 samples, 4.93%)</title><rect x="18.3" y="693" width="58.2" height="15.0" fill="rgb(205,4,1)" rx="2" ry="2" />
<text  x="21.31" y="703.5" >ksys_w..</text>
</g>
<g >
<title>__lock_text_start (10,101,010 samples, 0.70%)</title><rect x="51.5" y="53" width="8.4" height="15.0" fill="rgb(232,125,30)" rx="2" ry="2" />
<text  x="54.55" y="63.5" ></text>
</g>
<g >
<title>bubble_sort_list (616,161,610 samples, 42.96%)</title><rect x="259.3" y="757" width="506.9" height="15.0" fill="rgb(217,55,13)" rx="2" ry="2" />
<text  x="262.30" y="767.5" >bubble_sort_list</text>
</g>
<g >
<title>__pselect (101,010,100 samples, 7.04%)</title><rect x="791.1" y="789" width="83.1" height="15.0" fill="rgb(228,107,25)" rx="2" ry="2" />
<text  x="794.13" y="799.5" >__pselect</text>
</g>
<g >
<title>tcp_v4_do_rcv (10,101,010 samples, 0.70%)</title><rect x="59.9" y="165" width="8.3" height="15.0" fill="rgb(210,26,6)" rx="2" ry="2" />
<text  x="62.86" y="175.5" ></text>
</g>
<g >
<title>start_thread (50,505,050 samples, 3.52%)</title><rect x="1148.5" y="789" width="41.5" height="15.0" fill="rgb(212,34,8)" rx="2" ry="2" />
<text  x="1151.45" y="799.5" >sta..</text>
</g>
<g >
<title>__sock_sendmsg (70,707,070 samples, 4.93%)</title><rect x="18.3" y="629" width="58.2" height="15.0" fill="rgb(217,57,13)" rx="2" ry="2" />
<text  x="21.31" y="639.5" >__sock..</text>
</g>
<g >
<title>finish_task_switch (80,808,080 samples, 5.63%)</title><rect x="807.7" y="613" width="66.5" height="15.0" fill="rgb(234,136,32)" rx="2" ry="2" />
<text  x="810.75" y="623.5" >finish_..</text>
</g>
<g >
<title>ip_output (30,303,030 samples, 2.11%)</title><rect x="34.9" y="453" width="25.0" height="15.0" fill="rgb(247,194,46)" rx="2" ry="2" />
<text  x="37.93" y="463.5" >i..</text>
</g>
<g >
<title>common_file_perm (10,101,010 samples, 0.70%)</title><rect x="234.4" y="629" width="8.3" height="15.0" fill="rgb(239,160,38)" rx="2" ry="2" />
<text  x="237.37" y="639.5" ></text>
</g>
<g >
<title>do_syscall_64 (70,707,070 samples, 4.93%)</title><rect x="18.3" y="741" width="58.2" height="15.0" fill="rgb(209,20,4)" rx="2" ry="2" />
<text  x="21.31" y="751.5" >do_sys..</text>
</g>
<g >
<title>__softirqentry_text_start (10,101,010 samples, 0.70%)</title><rect x="59.9" y="373" width="8.3" height="15.0" fill="rgb(234,135,32)" rx="2" ry="2" />
<text  x="62.86" y="383.5" ></text>
</g>
<g >
<title>ip_finish_output (10,101,010 samples, 0.70%)</title><rect x="59.9" y="453" width="8.3" height="15.0" fill="rgb(242,173,41)" rx="2" ry="2" />
<text  x="62.86" y="463.5" ></text>
</g>
<g >
<title>tcp_sendmsg_locked (60,606,060 samples, 4.23%)</title><rect x="18.3" y="581" width="49.9" height="15.0" fill="rgb(215,48,11)" rx="2" ry="2" />
<text  x="21.31" y="591.5" >tcp_s..</text>
</g>
<g >
<title>tcp_push_one (10,101,010 samples, 0.70%)</title><rect x="59.9" y="565" width="8.3" height="15.0" fill="rgb(249,205,49)" rx="2" ry="2" />
<text  x="62.86" y="575.5" ></text>
</g>
<g >
<title>__libc_write (70,707,070 samples, 4.93%)</title><rect x="18.3" y="773" width="58.2" height="15.0" fill="rgb(238,154,37)" rx="2" ry="2" />
<text  x="21.31" y="783.5" >__libc..</text>
</g>
<g >
<title>__x64_sys_read (10,101,010 samples, 0.70%)</title><rect x="234.4" y="725" width="8.3" height="15.0" fill="rgb(219,68,16)" rx="2" ry="2" />
<text  x="237.37" y="735.5" ></text>
</g>
<g >
<title>ip_local_out (30,303,030 samples, 2.11%)</title><rect x="34.9" y="469" width="25.0" height="15.0" fill="rgb(233,131,31)" rx="2" ry="2" />
<text  x="37.93" y="479.5" >i..</text>
</g>
<g >
<title>__memcpy_ssse3 (20,202,020 samples, 1.41%)</title><rect x="242.7" y="757" width="16.6" height="15.0" fill="rgb(206,7,1)" rx="2" ry="2" />
<text  x="245.68" y="767.5" ></text>
</g>
<g >
<title>tcp_v4_rcv (10,101,010 samples, 0.70%)</title><rect x="59.9" y="181" width="8.3" height="15.0" fill="rgb(237,148,35)" rx="2" ry="2" />
<text  x="62.86" y="191.5" ></text>
</g>
<g >
<title>do_softirq.part.0 (30,303,030 samples, 2.11%)</title><rect x="34.9" y="373" width="25.0" height="15.0" fill="rgb(233,131,31)" rx="2" ry="2" />
<text  x="37.93" y="383.5" >d..</text>
</g>
<g >
<title>sock_def_readable (20,202,020 samples, 1.41%)</title><rect x="34.9" y="85" width="16.6" height="15.0" fill="rgb(216,54,13)" rx="2" ry="2" />
<text  x="37.93" y="95.5" ></text>
</g>
<g >
<title>__wake_up_common_lock (20,202,020 samples, 1.41%)</title><rect x="34.9" y="53" width="16.6" height="15.0" fill="rgb(238,155,37)" rx="2" ry="2" />
<text  x="37.93" y="63.5" ></text>
</g>
<g >
<title>murmur_hash3_x86_32 (50,505,050 samples, 3.52%)</title><rect x="1148.5" y="773" width="41.5" height="15.0" fill="rgb(248,202,48)" rx="2" ry="2" />
<text  x="1151.45" y="783.5" >mur..</text>
</g>
<g >
<title>net_rx_action (30,303,030 samples, 2.11%)</title><rect x="34.9" y="325" width="25.0" height="15.0" fill="rgb(240,164,39)" rx="2" ry="2" />
<text  x="37.93" y="335.5" >n..</text>
</g>
<g >
<title>schedule (80,808,080 samples, 5.63%)</title><rect x="807.7" y="645" width="66.5" height="15.0" fill="rgb(254,229,54)" rx="2" ry="2" />
<text  x="810.75" y="655.5" >schedule</text>
</g>
<g >
<title>tcp_data_ready (20,202,020 samples, 1.41%)</title><rect x="34.9" y="101" width="16.6" height="15.0" fill="rgb(232,124,29)" rx="2" ry="2" />
<text  x="37.93" y="111.5" ></text>
</g>
<g >
<title>ip_finish_output (30,303,030 samples, 2.11%)</title><rect x="34.9" y="437" width="25.0" height="15.0" fill="rgb(242,173,41)" rx="2" ry="2" />
<text  x="37.93" y="447.5" >i..</text>
</g>
<g >
<title>__netif_receive_skb (10,101,010 samples, 0.70%)</title><rect x="59.9" y="293" width="8.3" height="15.0" fill="rgb(218,60,14)" rx="2" ry="2" />
<text  x="62.86" y="303.5" ></text>
</g>
<g >
<title>security_file_permission (10,101,010 samples, 0.70%)</title><rect x="234.4" y="661" width="8.3" height="15.0" fill="rgb(225,96,23)" rx="2" ry="2" />
<text  x="237.37" y="671.5" ></text>
</g>
<g >
<title>do_futex (40,404,040 samples, 2.82%)</title><rect x="93.1" y="693" width="33.2" height="15.0" fill="rgb(245,184,44)" rx="2" ry="2" />
<text  x="96.10" y="703.5" >do..</text>
</g>
<g >
<title>sock_write_iter (70,707,070 samples, 4.93%)</title><rect x="18.3" y="645" width="58.2" height="15.0" fill="rgb(243,178,42)" rx="2" ry="2" />
<text  x="21.31" y="655.5" >sock_w..</text>
</g>
<g >
<title>pthread_cond_timedwait@@GLIBC_2.3.2 (40,404,040 samples, 2.82%)</title><rect x="93.1" y="773" width="33.2" height="15.0" fill="rgb(223,83,19)" rx="2" ry="2" />
<text  x="96.10" y="783.5" >pt..</text>
</g>
<g >
<title>do_syscall_64 (121,212,120 samples, 8.45%)</title><rect x="134.6" y="741" width="99.8" height="15.0" fill="rgb(209,20,4)" rx="2" ry="2" />
<text  x="137.65" y="751.5" >do_syscall_64</text>
</g>
<g >
<title>ip_local_deliver (30,303,030 samples, 2.11%)</title><rect x="34.9" y="213" width="25.0" height="15.0" fill="rgb(230,116,27)" rx="2" ry="2" />
<text  x="37.93" y="223.5" >i..</text>
</g>
<g >
<title>__x64_sys_futex (323,232,320 samples, 22.54%)</title><rect x="882.5" y="725" width="266.0" height="15.0" fill="rgb(239,159,38)" rx="2" ry="2" />
<text  x="885.54" y="735.5" >__x64_sys_futex</text>
</g>
<g >
<title>__lock_text_start (10,101,010 samples, 0.70%)</title><rect x="799.4" y="629" width="8.3" height="15.0" fill="rgb(232,125,30)" rx="2" ry="2" />
<text  x="802.44" y="639.5" ></text>
</g>
<g >
<title>__libc_start_main (656,565,650 samples, 45.77%)</title><rect x="242.7" y="789" width="540.1" height="15.0" fill="rgb(236,142,34)" rx="2" ry="2" />
<text  x="245.68" y="799.5" >__libc_start_main</text>
</g>
<g >
<title>ip_local_out (10,101,010 samples, 0.70%)</title><rect x="59.9" y="485" width="8.3" height="15.0" fill="rgb(233,131,31)" rx="2" ry="2" />
<text  x="62.86" y="495.5" ></text>
</g>
<g >
<title>ip_rcv (10,101,010 samples, 0.70%)</title><rect x="59.9" y="261" width="8.3" height="15.0" fill="rgb(209,22,5)" rx="2" ry="2" />
<text  x="62.86" y="271.5" ></text>
</g>
<g >
<title>new_sync_write (70,707,070 samples, 4.93%)</title><rect x="18.3" y="661" width="58.2" height="15.0" fill="rgb(244,181,43)" rx="2" ry="2" />
<text  x="21.31" y="671.5" >new_sy..</text>
</g>
<g >
<title>schedule_hrtimeout_range (90,909,090 samples, 6.34%)</title><rect x="799.4" y="677" width="74.8" height="15.0" fill="rgb(221,75,18)" rx="2" ry="2" />
<text  x="802.44" y="687.5" >schedule..</text>
</g>
<g >
<title>futex_wait_queue_me (40,404,040 samples, 2.82%)</title><rect x="93.1" y="661" width="33.2" height="15.0" fill="rgb(254,228,54)" rx="2" ry="2" />
<text  x="96.10" y="671.5" >fu..</text>
</g>
<g >
<title>__tcp_transmit_skb (40,404,040 samples, 2.82%)</title><rect x="26.6" y="517" width="33.3" height="15.0" fill="rgb(231,122,29)" rx="2" ry="2" />
<text  x="29.62" y="527.5" >__..</text>
</g>
<g >
<title>handle_softirqs (30,303,030 samples, 2.11%)</title><rect x="34.9" y="341" width="25.0" height="15.0" fill="rgb(238,156,37)" rx="2" ry="2" />
<text  x="37.93" y="351.5" >h..</text>
</g>
<g >
<title>malloc (10,101,010 samples, 0.70%)</title><rect x="84.8" y="773" width="8.3" height="15.0" fill="rgb(230,119,28)" rx="2" ry="2" />
<text  x="87.79" y="783.5" ></text>
</g>
<g >
<title>do_syscall_64 (10,101,010 samples, 0.70%)</title><rect x="234.4" y="757" width="8.3" height="15.0" fill="rgb(209,20,4)" rx="2" ry="2" />
<text  x="237.37" y="767.5" ></text>
</g>
<g >
<title>finish_task_switch (40,404,040 samples, 2.82%)</title><rect x="93.1" y="613" width="33.2" height="15.0" fill="rgb(234,136,32)" rx="2" ry="2" />
<text  x="96.10" y="623.5" >fi..</text>
</g>
<g >
<title>ksys_read (10,101,010 samples, 0.70%)</title><rect x="234.4" y="709" width="8.3" height="15.0" fill="rgb(229,113,27)" rx="2" ry="2" />
<text  x="237.37" y="719.5" ></text>
</g>
<g >
<title>__wake_up_common_lock (10,101,010 samples, 0.70%)</title><rect x="68.2" y="565" width="8.3" height="15.0" fill="rgb(238,155,37)" rx="2" ry="2" />
<text  x="71.17" y="575.5" ></text>
</g>
<g >
<title>sk_stream_alloc_skb (10,101,010 samples, 0.70%)</title><rect x="18.3" y="565" width="8.3" height="15.0" fill="rgb(230,118,28)" rx="2" ry="2" />
<text  x="21.31" y="575.5" ></text>
</g>
<g >
<title>__x64_sys_futex (121,212,120 samples, 8.45%)</title><rect x="134.6" y="709" width="99.8" height="15.0" fill="rgb(239,159,38)" rx="2" ry="2" />
<text  x="137.65" y="719.5" >__x64_sys_fu..</text>
</g>
<g >
<title>schedule (111,111,110 samples, 7.75%)</title><rect x="134.6" y="645" width="91.5" height="15.0" fill="rgb(254,229,54)" rx="2" ry="2" />
<text  x="137.65" y="655.5" >schedule</text>
</g>
<g >
<title>__local_bh_enable_ip (10,101,010 samples, 0.70%)</title><rect x="59.9" y="405" width="8.3" height="15.0" fill="rgb(237,147,35)" rx="2" ry="2" />
<text  x="62.86" y="415.5" ></text>
</g>
<g >
<title>ip_rcv_finish (10,101,010 samples, 0.70%)</title><rect x="59.9" y="245" width="8.3" height="15.0" fill="rgb(205,1,0)" rx="2" ry="2" />
<text  x="62.86" y="255.5" ></text>
</g>
<g >
<title>unix_stream_sendmsg (10,101,010 samples, 0.70%)</title><rect x="68.2" y="613" width="8.3" height="15.0" fill="rgb(240,161,38)" rx="2" ry="2" />
<text  x="71.17" y="623.5" ></text>
</g>
<g >
<title>latency_event_s (1,434,343,420 samples, 100.00%)</title><rect x="10.0" y="805" width="1180.0" height="15.0" fill="rgb(208,15,3)" rx="2" ry="2" />
<text  x="13.00" y="815.5" >latency_event_s</text>
</g>
<g >
<title>tcp_validate_incoming (10,101,010 samples, 0.70%)</title><rect x="59.9" y="133" width="8.3" height="15.0" fill="rgb(230,118,28)" rx="2" ry="2" />
<text  x="62.86" y="143.5" ></text>
</g>
<g >
<title>inet_sendmsg (60,606,060 samples, 4.23%)</title><rect x="18.3" y="613" width="49.9" height="15.0" fill="rgb(244,183,43)" rx="2" ry="2" />
<text  x="21.31" y="623.5" >inet_..</text>
</g>
<g >
<title>entry_SYSCALL_64_after_hwframe (323,232,320 samples, 22.54%)</title><rect x="882.5" y="773" width="266.0" height="15.0" fill="rgb(218,63,15)" rx="2" ry="2" />
<text  x="885.54" y="783.5" >entry_SYSCALL_64_after_hwframe</text>
</g>
<g >
<title>ip_protocol_deliver_rcu (30,303,030 samples, 2.11%)</title><rect x="34.9" y="181" width="25.0" height="15.0" fill="rgb(215,49,11)" rx="2" ry="2" />
<text  x="37.93" y="191.5" >i..</text>
</g>
<g >
<title>tcp_v4_do_rcv (30,303,030 samples, 2.11%)</title><rect x="34.9" y="149" width="25.0" height="15.0" fill="rgb(210,26,6)" rx="2" ry="2" />
<text  x="37.93" y="159.5" >t..</text>
</g>
<g >
<title>process_backlog (10,101,010 samples, 0.70%)</title><rect x="59.9" y="309" width="8.3" height="15.0" fill="rgb(224,90,21)" rx="2" ry="2" />
<text  x="62.86" y="319.5" ></text>
</g>
<g >
<title>do_futex (121,212,120 samples, 8.45%)</title><rect x="134.6" y="693" width="99.8" height="15.0" fill="rgb(245,184,44)" rx="2" ry="2" />
<text  x="137.65" y="703.5" >do_futex</text>
</g>
<g >
<title>x64_sys_call (90,909,090 samples, 6.34%)</title><rect x="799.4" y="741" width="74.8" height="15.0" fill="rgb(247,194,46)" rx="2" ry="2" />
<text  x="802.44" y="751.5" >x64_sys_..</text>
</g>
<g >
<title>ip_finish_output2 (30,303,030 samples, 2.11%)</title><rect x="34.9" y="405" width="25.0" height="15.0" fill="rgb(219,67,16)" rx="2" ry="2" />
<text  x="37.93" y="415.5" >i..</text>
</g>
<g >
<title>ip_rcv_finish (30,303,030 samples, 2.11%)</title><rect x="34.9" y="229" width="25.0" height="15.0" fill="rgb(205,1,0)" rx="2" ry="2" />
<text  x="37.93" y="239.5" >i..</text>
</g>
<g >
<title>all (1,434,343,420 samples, 100%)</title><rect x="10.0" y="821" width="1180.0" height="15.0" fill="rgb(213,39,9)" rx="2" ry="2" />
<text  x="13.00" y="831.5" ></text>
</g>
<g >
<title>futex_wake (323,232,320 samples, 22.54%)</title><rect x="882.5" y="693" width="266.0" height="15.0" fill="rgb(219,65,15)" rx="2" ry="2" />
<text  x="885.54" y="703.5" >futex_wake</text>
</g>
<g >
<title>wake_up_q (323,232,320 samples, 22.54%)</title><rect x="882.5" y="677" width="266.0" height="15.0" fill="rgb(237,151,36)" rx="2" ry="2" />
<text  x="885.54" y="687.5" >wake_up_q</text>
</g>
<g >
<title>entry_SYSCALL_64_after_hwframe (121,212,120 samples, 8.45%)</title><rect x="134.6" y="757" width="99.8" height="15.0" fill="rgb(218,63,15)" rx="2" ry="2" />
<text  x="137.65" y="767.5" >entry_SYSCAL..</text>
</g>
<g >
<title>tcp_rcv_established (10,101,010 samples, 0.70%)</title><rect x="59.9" y="149" width="8.3" height="15.0" fill="rgb(242,170,40)" rx="2" ry="2" />
<text  x="62.86" y="159.5" ></text>
</g>
<g >
<title>__x64_sys_pselect6 (90,909,090 samples, 6.34%)</title><rect x="799.4" y="725" width="74.8" height="15.0" fill="rgb(224,90,21)" rx="2" ry="2" />
<text  x="802.44" y="735.5" >__x64_sy..</text>
</g>
<g >
<title>entry_SYSCALL_64_after_hwframe (40,404,040 samples, 2.82%)</title><rect x="93.1" y="757" width="33.2" height="15.0" fill="rgb(218,63,15)" rx="2" ry="2" />
<text  x="96.10" y="767.5" >en..</text>
</g>
<g >
<title>do_softirq.part.0 (10,101,010 samples, 0.70%)</title><rect x="59.9" y="389" width="8.3" height="15.0" fill="rgb(233,131,31)" rx="2" ry="2" />
<text  x="62.86" y="399.5" ></text>
</g>
<g >
<title>x64_sys_call (323,232,320 samples, 22.54%)</title><rect x="882.5" y="741" width="266.0" height="15.0" fill="rgb(247,194,46)" rx="2" ry="2" />
<text  x="885.54" y="751.5" >x64_sys_call</text>
</g>
<g >
<title>__lock_text_start (10,101,010 samples, 0.70%)</title><rect x="68.2" y="549" width="8.3" height="15.0" fill="rgb(232,125,30)" rx="2" ry="2" />
<text  x="71.17" y="559.5" ></text>
</g>
<g >
<title>do_futex (323,232,320 samples, 22.54%)</title><rect x="882.5" y="709" width="266.0" height="15.0" fill="rgb(245,184,44)" rx="2" ry="2" />
<text  x="885.54" y="719.5" >do_futex</text>
</g>
<g >
<title>[unknown] (272,727,270 samples, 19.01%)</title><rect x="10.0" y="789" width="224.4" height="15.0" fill="rgb(210,24,5)" rx="2" ry="2" />
<text  x="13.00" y="799.5" >[unknown]</text>
</g>
<g >
<title>__netif_receive_skb (30,303,030 samples, 2.11%)</title><rect x="34.9" y="277" width="25.0" height="15.0" fill="rgb(218,60,14)" rx="2" ry="2" />
<text  x="37.93" y="287.5" >_..</text>
</g>
<g >
<title>[libmosquitto.so.1.6.9] (10,101,010 samples, 0.70%)</title><rect x="10.0" y="773" width="8.3" height="15.0" fill="rgb(239,160,38)" rx="2" ry="2" />
<text  x="13.00" y="783.5" ></text>
</g>
<g >
<title>__softirqentry_text_start (30,303,030 samples, 2.11%)</title><rect x="34.9" y="357" width="25.0" height="15.0" fill="rgb(234,135,32)" rx="2" ry="2" />
<text  x="37.93" y="367.5" >_..</text>
</g>
<g >
<title>__x64_sys_write (70,707,070 samples, 4.93%)</title><rect x="18.3" y="709" width="58.2" height="15.0" fill="rgb(246,189,45)" rx="2" ry="2" />
<text  x="21.31" y="719.5" >__x64_..</text>
</g>
<g >
<title>x64_sys_call (121,212,120 samples, 8.45%)</title><rect x="134.6" y="725" width="99.8" height="15.0" fill="rgb(247,194,46)" rx="2" ry="2" />
<text  x="137.65" y="735.5" >x64_sys_call</text>
</g>
<g >
<title>__netif_receive_skb_one_core (30,303,030 samples, 2.11%)</title><rect x="34.9" y="261" width="25.0" height="15.0" fill="rgb(215,47,11)" rx="2" ry="2" />
<text  x="37.93" y="271.5" >_..</text>
</g>
<g >
<title>__wake_up_common_lock (10,101,010 samples, 0.70%)</title><rect x="51.5" y="69" width="8.4" height="15.0" fill="rgb(238,155,37)" rx="2" ry="2" />
<text  x="54.55" y="79.5" ></text>
</g>
<g >
<title>__sched_text_start (80,808,080 samples, 5.63%)</title><rect x="807.7" y="629" width="66.5" height="15.0" fill="rgb(225,92,22)" rx="2" ry="2" />
<text  x="810.75" y="639.5" >__sched..</text>
</g>
<g >
<title>apparmor_file_permission (10,101,010 samples, 0.70%)</title><rect x="234.4" y="645" width="8.3" height="15.0" fill="rgb(218,60,14)" rx="2" ry="2" />
<text  x="237.37" y="655.5" ></text>
</g>
<g >
<title>__x64_sys_futex (40,404,040 samples, 2.82%)</title><rect x="93.1" y="709" width="33.2" height="15.0" fill="rgb(239,159,38)" rx="2" ry="2" />
<text  x="96.10" y="719.5" >__..</text>
</g>
<g >
<title>do_syscall_64 (40,404,040 samples, 2.82%)</title><rect x="93.1" y="741" width="33.2" height="15.0" fill="rgb(209,20,4)" rx="2" ry="2" />
<text  x="96.10" y="751.5" >do..</text>
</g>
<g >
<title>__sched_text_start (111,111,110 samples, 7.75%)</title><rect x="134.6" y="629" width="91.5" height="15.0" fill="rgb(225,92,22)" rx="2" ry="2" />
<text  x="137.65" y="639.5" >__sched_te..</text>
</g>
<g >
<title>pthread_cond_wait@@GLIBC_2.3.2 (131,313,130 samples, 9.15%)</title><rect x="126.3" y="773" width="108.1" height="15.0" fill="rgb(253,221,53)" rx="2" ry="2" />
<text  x="129.34" y="783.5" >pthread_cond_..</text>
</g>
<g >
<title>ip_rcv (30,303,030 samples, 2.11%)</title><rect x="34.9" y="245" width="25.0" height="15.0" fill="rgb(209,22,5)" rx="2" ry="2" />
<text  x="37.93" y="255.5" >i..</text>
</g>
<g >
<title>core_sys_select (90,909,090 samples, 6.34%)</title><rect x="799.4" y="709" width="74.8" height="15.0" fill="rgb(238,156,37)" rx="2" ry="2" />
<text  x="802.44" y="719.5" >core_sys..</text>
</g>
<g >
<title>schedule (40,404,040 samples, 2.82%)</title><rect x="93.1" y="645" width="33.2" height="15.0" fill="rgb(254,229,54)" rx="2" ry="2" />
<text  x="96.10" y="655.5" >sc..</text>
</g>
<g >
<title>tcp_push (40,404,040 samples, 2.82%)</title><rect x="26.6" y="565" width="33.3" height="15.0" fill="rgb(243,176,42)" rx="2" ry="2" />
<text  x="29.62" y="575.5" >tc..</text>
</g>
<g >
<title>__wake_up_sync_key (10,101,010 samples, 0.70%)</title><rect x="51.5" y="85" width="8.4" height="15.0" fill="rgb(226,100,24)" rx="2" ry="2" />
<text  x="54.55" y="95.5" ></text>
</g>
<g >
<title>__vdso_clock_gettime (10,101,010 samples, 0.70%)</title><rect x="874.2" y="773" width="8.3" height="15.0" fill="rgb(254,226,54)" rx="2" ry="2" />
<text  x="877.23" y="783.5" ></text>
</g>
<g >
<title>__alloc_skb (10,101,010 samples, 0.70%)</title><rect x="18.3" y="549" width="8.3" height="15.0" fill="rgb(226,100,23)" rx="2" ry="2" />
<text  x="21.31" y="559.5" ></text>
</g>
<g >
<title>futex_wait (121,212,120 samples, 8.45%)</title><rect x="134.6" y="677" width="99.8" height="15.0" fill="rgb(235,138,33)" rx="2" ry="2" />
<text  x="137.65" y="687.5" >futex_wait</text>
</g>
<g >
<title>futex_wait_setup (10,101,010 samples, 0.70%)</title><rect x="226.1" y="661" width="8.3" height="15.0" fill="rgb(247,195,46)" rx="2" ry="2" />
<text  x="229.06" y="671.5" ></text>
</g>
<g >
<title>ip_local_deliver_finish (30,303,030 samples, 2.11%)</title><rect x="34.9" y="197" width="25.0" height="15.0" fill="rgb(225,95,22)" rx="2" ry="2" />
<text  x="37.93" y="207.5" >i..</text>
</g>
<g >
<title>do_select (90,909,090 samples, 6.34%)</title><rect x="799.4" y="693" width="74.8" height="15.0" fill="rgb(252,218,52)" rx="2" ry="2" />
<text  x="802.44" y="703.5" >do_select</text>
</g>
<g >
<title>ip_local_deliver_finish (10,101,010 samples, 0.70%)</title><rect x="59.9" y="213" width="8.3" height="15.0" fill="rgb(225,95,22)" rx="2" ry="2" />
<text  x="62.86" y="223.5" ></text>
</g>
<g >
<title>__memset_sse2_unaligned_erms (10,101,010 samples, 0.70%)</title><rect x="76.5" y="773" width="8.3" height="15.0" fill="rgb(249,203,48)" rx="2" ry="2" />
<text  x="79.48" y="783.5" ></text>
</g>
<g >
<title>tcp_write_xmit (40,404,040 samples, 2.82%)</title><rect x="26.6" y="533" width="33.3" height="15.0" fill="rgb(231,122,29)" rx="2" ry="2" />
<text  x="29.62" y="543.5" >tc..</text>
</g>
<g >
<title>__libc_read (10,101,010 samples, 0.70%)</title><rect x="234.4" y="789" width="8.3" height="15.0" fill="rgb(212,34,8)" rx="2" ry="2" />
<text  x="237.37" y="799.5" ></text>
</g>
<g >
<title>entry_SYSCALL_64_after_hwframe (70,707,070 samples, 4.93%)</title><rect x="18.3" y="757" width="58.2" height="15.0" fill="rgb(218,63,15)" rx="2" ry="2" />
<text  x="21.31" y="767.5" >entry_..</text>
</g>
<g >
<title>__ip_queue_xmit (30,303,030 samples, 2.11%)</title><rect x="34.9" y="485" width="25.0" height="15.0" fill="rgb(253,223,53)" rx="2" ry="2" />
<text  x="37.93" y="495.5" >_..</text>
</g>
<g >
<title>syscall_enter_from_user_mode (10,101,010 samples, 0.70%)</title><rect x="791.1" y="741" width="8.3" height="15.0" fill="rgb(254,229,54)" rx="2" ry="2" />
<text  x="794.13" y="751.5" ></text>
</g>
<g >
<title>ip_output (10,101,010 samples, 0.70%)</title><rect x="59.9" y="469" width="8.3" height="15.0" fill="rgb(247,194,46)" rx="2" ry="2" />
<text  x="62.86" y="479.5" ></text>
</g>
<g >
<title>do_syscall_64 (101,010,100 samples, 7.04%)</title><rect x="791.1" y="757" width="83.1" height="15.0" fill="rgb(209,20,4)" rx="2" ry="2" />
<text  x="794.13" y="767.5" >do_syscal..</text>
</g>
<g >
<title>futex_wait (40,404,040 samples, 2.82%)</title><rect x="93.1" y="677" width="33.2" height="15.0" fill="rgb(235,138,33)" rx="2" ry="2" />
<text  x="96.10" y="687.5" >fu..</text>
</g>
<g >
<title>x64_sys_call (40,404,040 samples, 2.82%)</title><rect x="93.1" y="725" width="33.2" height="15.0" fill="rgb(247,194,46)" rx="2" ry="2" />
<text  x="96.10" y="735.5" >x6..</text>
</g>
<g >
<title>net_rx_action (10,101,010 samples, 0.70%)</title><rect x="59.9" y="341" width="8.3" height="15.0" fill="rgb(240,164,39)" rx="2" ry="2" />
<text  x="62.86" y="351.5" ></text>
</g>
<g >
<title>entry_SYSCALL_64_after_hwframe (10,101,010 samples, 0.70%)</title><rect x="234.4" y="773" width="8.3" height="15.0" fill="rgb(218,63,15)" rx="2" ry="2" />
<text  x="237.37" y="783.5" ></text>
</g>
<g >
<title>pthread_cond_signal@@GLIBC_2.3.2 (323,232,320 samples, 22.54%)</title><rect x="882.5" y="789" width="266.0" height="15.0" fill="rgb(254,229,54)" rx="2" ry="2" />
<text  x="885.54" y="799.5" >pthread_cond_signal@@GLIBC_2.3.2</text>
</g>
<g >
<title>__tcp_transmit_skb (10,101,010 samples, 0.70%)</title><rect x="59.9" y="533" width="8.3" height="15.0" fill="rgb(231,122,29)" rx="2" ry="2" />
<text  x="62.86" y="543.5" ></text>
</g>
<g >
<title>ip_queue_xmit (10,101,010 samples, 0.70%)</title><rect x="59.9" y="517" width="8.3" height="15.0" fill="rgb(230,119,28)" rx="2" ry="2" />
<text  x="62.86" y="527.5" ></text>
</g>
<g >
<title>tcp_rcv_established (30,303,030 samples, 2.11%)</title><rect x="34.9" y="133" width="25.0" height="15.0" fill="rgb(242,170,40)" rx="2" ry="2" />
<text  x="37.93" y="143.5" >t..</text>
</g>
<g >
<title>__lock_text_start (20,202,020 samples, 1.41%)</title><rect x="34.9" y="37" width="16.6" height="15.0" fill="rgb(232,125,30)" rx="2" ry="2" />
<text  x="37.93" y="47.5" ></text>
</g>
<g >
<title>__local_bh_enable_ip (30,303,030 samples, 2.11%)</title><rect x="34.9" y="389" width="25.0" height="15.0" fill="rgb(237,147,35)" rx="2" ry="2" />
<text  x="37.93" y="399.5" >_..</text>
</g>
<g >
<title>schedule_hrtimeout_range_clock (90,909,090 samples, 6.34%)</title><rect x="799.4" y="661" width="74.8" height="15.0" fill="rgb(222,81,19)" rx="2" ry="2" />
<text  x="802.44" y="671.5" >schedule..</text>
</g>
<g >
<title>__ip_finish_output (10,101,010 samples, 0.70%)</title><rect x="59.9" y="437" width="8.3" height="15.0" fill="rgb(215,47,11)" rx="2" ry="2" />
<text  x="62.86" y="447.5" ></text>
</g>
<g >
<title>hrtimer_start_range_ns (10,101,010 samples, 0.70%)</title><rect x="799.4" y="645" width="8.3" height="15.0" fill="rgb(244,179,42)" rx="2" ry="2" />
<text  x="802.44" y="655.5" ></text>
</g>
<g >
<title>__napi_poll (10,101,010 samples, 0.70%)</title><rect x="59.9" y="325" width="8.3" height="15.0" fill="rgb(247,195,46)" rx="2" ry="2" />
<text  x="62.86" y="335.5" ></text>
</g>
<g >
<title>__lock_text_start (323,232,320 samples, 22.54%)</title><rect x="882.5" y="645" width="266.0" height="15.0" fill="rgb(232,125,30)" rx="2" ry="2" />
<text  x="885.54" y="655.5" >__lock_text_start</text>
</g>
<g >
<title>sock_def_readable (10,101,010 samples, 0.70%)</title><rect x="68.2" y="597" width="8.3" height="15.0" fill="rgb(216,54,13)" rx="2" ry="2" />
<text  x="71.17" y="607.5" ></text>
</g>
<g >
<title>sock_def_readable (10,101,010 samples, 0.70%)</title><rect x="51.5" y="101" width="8.4" height="15.0" fill="rgb(216,54,13)" rx="2" ry="2" />
<text  x="54.55" y="111.5" ></text>
</g>
<g >
<title>main (656,565,650 samples, 45.77%)</title><rect x="242.7" y="773" width="540.1" height="15.0" fill="rgb(243,179,42)" rx="2" ry="2" />
<text  x="245.68" y="783.5" >main</text>
</g>
<g >
<title>tcp_write_xmit (10,101,010 samples, 0.70%)</title><rect x="59.9" y="549" width="8.3" height="15.0" fill="rgb(231,122,29)" rx="2" ry="2" />
<text  x="62.86" y="559.5" ></text>
</g>
<g >
<title>rw_verify_area (10,101,010 samples, 0.70%)</title><rect x="234.4" y="677" width="8.3" height="15.0" fill="rgb(218,64,15)" rx="2" ry="2" />
<text  x="237.37" y="687.5" ></text>
</g>
<g >
<title>tcp_data_ready (10,101,010 samples, 0.70%)</title><rect x="51.5" y="117" width="8.4" height="15.0" fill="rgb(232,124,29)" rx="2" ry="2" />
<text  x="54.55" y="127.5" ></text>
</g>
<g >
<title>vfs_read (10,101,010 samples, 0.70%)</title><rect x="234.4" y="693" width="8.3" height="15.0" fill="rgb(224,88,21)" rx="2" ry="2" />
<text  x="237.37" y="703.5" ></text>
</g>
<g >
<title>__sched_text_start (40,404,040 samples, 2.82%)</title><rect x="93.1" y="629" width="33.2" height="15.0" fill="rgb(225,92,22)" rx="2" ry="2" />
<text  x="96.10" y="639.5" >__..</text>
</g>
<g >
<title>tcp_v4_rcv (30,303,030 samples, 2.11%)</title><rect x="34.9" y="165" width="25.0" height="15.0" fill="rgb(237,148,35)" rx="2" ry="2" />
<text  x="37.93" y="175.5" >t..</text>
</g>
<g >
<title>ip_queue_xmit (30,303,030 samples, 2.11%)</title><rect x="34.9" y="501" width="25.0" height="15.0" fill="rgb(230,119,28)" rx="2" ry="2" />
<text  x="37.93" y="511.5" >i..</text>
</g>
<g >
<title>__ip_queue_xmit (10,101,010 samples, 0.70%)</title><rect x="59.9" y="501" width="8.3" height="15.0" fill="rgb(253,223,53)" rx="2" ry="2" />
<text  x="62.86" y="511.5" ></text>
</g>
<g >
<title>entry_SYSCALL_64_after_hwframe (101,010,100 samples, 7.04%)</title><rect x="791.1" y="773" width="83.1" height="15.0" fill="rgb(218,63,15)" rx="2" ry="2" />
<text  x="794.13" y="783.5" >entry_SYS..</text>
</g>
<g >
<title>process_backlog (30,303,030 samples, 2.11%)</title><rect x="34.9" y="293" width="25.0" height="15.0" fill="rgb(224,90,21)" rx="2" ry="2" />
<text  x="37.93" y="303.5" >p..</text>
</g>
<g >
<title>futex_wait_queue_me (111,111,110 samples, 7.75%)</title><rect x="134.6" y="661" width="91.5" height="15.0" fill="rgb(254,228,54)" rx="2" ry="2" />
<text  x="137.65" y="671.5" >futex_wait..</text>
</g>
<g >
<title>clock_gettime@GLIBC_2.2.5 (10,101,010 samples, 0.70%)</title><rect x="874.2" y="789" width="8.3" height="15.0" fill="rgb(223,84,20)" rx="2" ry="2" />
<text  x="877.23" y="799.5" ></text>
</g>
<g >
<title>x64_sys_call (10,101,010 samples, 0.70%)</title><rect x="234.4" y="741" width="8.3" height="15.0" fill="rgb(247,194,46)" rx="2" ry="2" />
<text  x="237.37" y="751.5" ></text>
</g>
<g >
<title>__tcp_push_pending_frames (40,404,040 samples, 2.82%)</title><rect x="26.6" y="549" width="33.3" height="15.0" fill="rgb(230,117,28)" rx="2" ry="2" />
<text  x="29.62" y="559.5" >__..</text>
</g>
<g >
<title>__wake_up_sync_key (20,202,020 samples, 1.41%)</title><rect x="34.9" y="69" width="16.6" height="15.0" fill="rgb(226,100,24)" rx="2" ry="2" />
<text  x="37.93" y="79.5" ></text>
</g>
<g >
<title>__memcpy_ssse3 (10,101,010 samples, 0.70%)</title><rect x="782.8" y="789" width="8.3" height="15.0" fill="rgb(206,7,1)" rx="2" ry="2" />
<text  x="785.82" y="799.5" ></text>
</g>
<g >
<title>vfs_write (70,707,070 samples, 4.93%)</title><rect x="18.3" y="677" width="58.2" height="15.0" fill="rgb(250,209,50)" rx="2" ry="2" />
<text  x="21.31" y="687.5" >vfs_wr..</text>
</g>
<g >
<title>ip_finish_output2 (10,101,010 samples, 0.70%)</title><rect x="59.9" y="421" width="8.3" height="15.0" fill="rgb(219,67,16)" rx="2" ry="2" />
<text  x="62.86" y="431.5" ></text>
</g>
<g >
<title>__netif_receive_skb_one_core (10,101,010 samples, 0.70%)</title><rect x="59.9" y="277" width="8.3" height="15.0" fill="rgb(215,47,11)" rx="2" ry="2" />
<text  x="62.86" y="287.5" ></text>
</g>
</g>
</svg>
